<?xml version="1.0" encoding="UTF-8" standalone="no"?><svg xmlns="http://www.w3.org/2000/svg" xmlns:xlink="http://www.w3.org/1999/xlink" contentScriptType="application/ecmascript" contentStyleType="text/css" height="693px" preserveAspectRatio="none" style="width:1233px;height:693px;background:#FFFFFF;" version="1.1" viewBox="0 0 1233 693" width="1233px" zoomAndPan="magnify"><defs><filter height="300%" id="f145bddfby8eb8" width="300%" x="-1" y="-1"><feGaussianBlur result="blurOut" stdDeviation="2.0"/><feColorMatrix in="blurOut" result="blurOut2" type="matrix" values="0 0 0 0 0 0 0 0 0 0 0 0 0 0 0 0 0 0 .4 0"/><feOffset dx="4.0" dy="4.0" in="blurOut2" result="blurOut3"/><feBlend in="SourceGraphic" in2="blurOut3" mode="normal"/></filter></defs><g><!--MD5=[09a53695e98d4f26e7a054522080af08]
class Section--><rect codeLine="4" fill="#FEFECE" filter="url(#f145bddfby8eb8)" height="60.8047" id="Section" style="stroke:#A80036;stroke-width:1.5;" width="104" x="97" y="7"/><ellipse cx="123.25" cy="23" fill="#ADD1B2" rx="11" ry="11" style="stroke:#A80036;stroke-width:1.0;"/><path d="M126.2188,28.6406 Q125.6406,28.9375 125,29.0781 Q124.3594,29.2344 123.6563,29.2344 Q121.1563,29.2344 119.8281,27.5938 Q118.5156,25.9375 118.5156,22.8125 Q118.5156,19.6875 119.8281,18.0313 Q121.1563,16.375 123.6563,16.375 Q124.3594,16.375 125,16.5313 Q125.6563,16.6875 126.2188,16.9844 L126.2188,19.7031 Q125.5938,19.125 125,18.8594 Q124.4063,18.5781 123.7813,18.5781 Q122.4375,18.5781 121.75,19.6563 Q121.0625,20.7188 121.0625,22.8125 Q121.0625,24.9063 121.75,25.9844 Q122.4375,27.0469 123.7813,27.0469 Q124.4063,27.0469 125,26.7813 Q125.5938,26.5 126.2188,25.9219 L126.2188,28.6406 Z " fill="#000000"/><text fill="#000000" font-family="sans-serif" font-size="12" lengthAdjust="spacing" textLength="47" x="139.75" y="27.1543">Section</text><line style="stroke:#A80036;stroke-width:1.5;" x1="98" x2="200" y1="39" y2="39"/><rect fill="none" height="6" style="stroke:#C82930;stroke-width:1.0;" width="6" x="105" y="47"/><text fill="#000000" font-family="sans-serif" font-size="11" lengthAdjust="spacing" textLength="78" x="117" y="53.2104">name : String</text><line style="stroke:#A80036;stroke-width:1.5;" x1="98" x2="200" y1="59.8047" y2="59.8047"/><!--MD5=[4066b0363c5a91ff3b6e03e0428953a9]
class Course--><rect codeLine="7" fill="#FEFECE" filter="url(#f145bddfby8eb8)" height="60.8047" id="Course" style="stroke:#A80036;stroke-width:1.5;" width="104" x="604.5" y="7"/><ellipse cx="632.1" cy="23" fill="#ADD1B2" rx="11" ry="11" style="stroke:#A80036;stroke-width:1.0;"/><path d="M635.0688,28.6406 Q634.4906,28.9375 633.85,29.0781 Q633.2094,29.2344 632.5063,29.2344 Q630.0063,29.2344 628.6781,27.5938 Q627.3656,25.9375 627.3656,22.8125 Q627.3656,19.6875 628.6781,18.0313 Q630.0063,16.375 632.5063,16.375 Q633.2094,16.375 633.85,16.5313 Q634.5063,16.6875 635.0688,16.9844 L635.0688,19.7031 Q634.4438,19.125 633.85,18.8594 Q633.2563,18.5781 632.6313,18.5781 Q631.2875,18.5781 630.6,19.6563 Q629.9125,20.7188 629.9125,22.8125 Q629.9125,24.9063 630.6,25.9844 Q631.2875,27.0469 632.6313,27.0469 Q633.2563,27.0469 633.85,26.7813 Q634.4438,26.5 635.0688,25.9219 L635.0688,28.6406 Z " fill="#000000"/><text fill="#000000" font-family="sans-serif" font-size="12" lengthAdjust="spacing" textLength="44" x="648.9" y="27.1543">Course</text><line style="stroke:#A80036;stroke-width:1.5;" x1="605.5" x2="707.5" y1="39" y2="39"/><rect fill="none" height="6" style="stroke:#C82930;stroke-width:1.0;" width="6" x="612.5" y="47"/><text fill="#000000" font-family="sans-serif" font-size="11" lengthAdjust="spacing" textLength="78" x="624.5" y="53.2104">name : String</text><line style="stroke:#A80036;stroke-width:1.5;" x1="605.5" x2="707.5" y1="59.8047" y2="59.8047"/><!--MD5=[3c19d5e4c51abae4c8bc7a1df7b80853]
class AcademicYear--><rect codeLine="10" fill="#FEFECE" filter="url(#f145bddfby8eb8)" height="86.4141" id="AcademicYear" style="stroke:#A80036;stroke-width:1.5;" width="231" x="33.5" y="184.5"/><ellipse cx="100.75" cy="200.5" fill="#ADD1B2" rx="11" ry="11" style="stroke:#A80036;stroke-width:1.0;"/><path d="M103.7188,206.1406 Q103.1406,206.4375 102.5,206.5781 Q101.8594,206.7344 101.1563,206.7344 Q98.6563,206.7344 97.3281,205.0938 Q96.0156,203.4375 96.0156,200.3125 Q96.0156,197.1875 97.3281,195.5313 Q98.6563,193.875 101.1563,193.875 Q101.8594,193.875 102.5,194.0313 Q103.1563,194.1875 103.7188,194.4844 L103.7188,197.2031 Q103.0938,196.625 102.5,196.3594 Q101.9063,196.0781 101.2813,196.0781 Q99.9375,196.0781 99.25,197.1563 Q98.5625,198.2188 98.5625,200.3125 Q98.5625,202.4063 99.25,203.4844 Q99.9375,204.5469 101.2813,204.5469 Q101.9063,204.5469 102.5,204.2813 Q103.0938,204 103.7188,203.4219 L103.7188,206.1406 Z " fill="#000000"/><text fill="#000000" font-family="sans-serif" font-size="12" lengthAdjust="spacing" textLength="88" x="121.25" y="204.6543">AcademicYear</text><line style="stroke:#A80036;stroke-width:1.5;" x1="34.5" x2="263.5" y1="216.5" y2="216.5"/><rect fill="none" height="6" style="stroke:#C82930;stroke-width:1.0;" width="6" x="41.5" y="224.5"/><text fill="#000000" font-family="sans-serif" font-size="11" lengthAdjust="spacing" textLength="122" x="53.5" y="230.7104">beginning : LocalDate</text><rect fill="none" height="6" style="stroke:#C82930;stroke-width:1.0;" width="6" x="41.5" y="237.3047"/><text fill="#000000" font-family="sans-serif" font-size="11" lengthAdjust="spacing" textLength="88" x="53.5" y="243.5151">end : LocalDate</text><line style="stroke:#A80036;stroke-width:1.5;" x1="34.5" x2="263.5" y1="250.1094" y2="250.1094"/><ellipse cx="44.5" cy="261.1094" fill="#84BE84" rx="3" ry="3" style="stroke:#038048;stroke-width:1.0;"/><text fill="#000000" font-family="sans-serif" font-size="11" lengthAdjust="spacing" textLength="205" x="53.5" y="264.3198">contains(date : LocalDate) : boolean</text><!--MD5=[03da7ad6344b0b2c818a169ad3cc63fd]
class Permission--><rect codeLine="15" fill="#FEFECE" filter="url(#f145bddfby8eb8)" height="73.6094" id="Permission" style="stroke:#A80036;stroke-width:1.5;" width="145" x="76.5" y="595.5"/><ellipse cx="111.75" cy="611.5" fill="#EB937F" rx="11" ry="11" style="stroke:#A80036;stroke-width:1.0;"/><path d="M115.8594,617.5 L108.1406,617.5 L108.1406,605.1094 L115.8594,605.1094 L115.8594,607.2656 L110.5938,607.2656 L110.5938,609.9375 L115.3594,609.9375 L115.3594,612.0938 L110.5938,612.0938 L110.5938,615.3438 L115.8594,615.3438 L115.8594,617.5 Z " fill="#000000"/><text fill="#000000" font-family="sans-serif" font-size="12" lengthAdjust="spacing" textLength="68" x="130.25" y="615.6543">Permission</text><line style="stroke:#A80036;stroke-width:1.5;" x1="77.5" x2="220.5" y1="627.5" y2="627.5"/><text fill="#000000" font-family="sans-serif" font-size="11" lengthAdjust="spacing" textLength="133" x="82.5" y="641.7104">READ_PERSON_DETAILS</text><text fill="#000000" font-family="sans-serif" font-size="11" lengthAdjust="spacing" textLength="12" x="82.5" y="654.5151">...</text><line style="stroke:#A80036;stroke-width:1.5;" x1="77.5" x2="220.5" y1="661.1094" y2="661.1094"/><!--MD5=[a3638c1e5b65d287ecad7f06f5c0f212]
class Role--><rect codeLine="19" fill="#FEFECE" filter="url(#f145bddfby8eb8)" height="99.2188" id="Role" style="stroke:#A80036;stroke-width:1.5;" width="284" x="7" y="396"/><ellipse cx="131.25" cy="412" fill="#ADD1B2" rx="11" ry="11" style="stroke:#A80036;stroke-width:1.0;"/><path d="M134.2188,417.6406 Q133.6406,417.9375 133,418.0781 Q132.3594,418.2344 131.6563,418.2344 Q129.1563,418.2344 127.8281,416.5938 Q126.5156,414.9375 126.5156,411.8125 Q126.5156,408.6875 127.8281,407.0313 Q129.1563,405.375 131.6563,405.375 Q132.3594,405.375 133,405.5313 Q133.6563,405.6875 134.2188,405.9844 L134.2188,408.7031 Q133.5938,408.125 133,407.8594 Q132.4063,407.5781 131.7813,407.5781 Q130.4375,407.5781 129.75,408.6563 Q129.0625,409.7188 129.0625,411.8125 Q129.0625,413.9063 129.75,414.9844 Q130.4375,416.0469 131.7813,416.0469 Q132.4063,416.0469 133,415.7813 Q133.5938,415.5 134.2188,414.9219 L134.2188,417.6406 Z " fill="#000000"/><text fill="#000000" font-family="sans-serif" font-size="12" lengthAdjust="spacing" textLength="27" x="151.75" y="416.1543">Role</text><line style="stroke:#A80036;stroke-width:1.5;" x1="8" x2="290" y1="428" y2="428"/><rect fill="none" height="6" style="stroke:#C82930;stroke-width:1.0;" width="6" x="15" y="436"/><text fill="#000000" font-family="sans-serif" font-size="11" lengthAdjust="spacing" textLength="78" x="27" y="442.2104">name : String</text><line style="stroke:#A80036;stroke-width:1.5;" x1="8" x2="290" y1="448.8047" y2="448.8047"/><ellipse cx="18" cy="459.8047" fill="#84BE84" rx="3" ry="3" style="stroke:#038048;stroke-width:1.0;"/><text fill="#000000" font-family="sans-serif" font-size="11" lengthAdjust="spacing" textLength="213" x="27" y="463.0151">grant(permission : Permission) : void</text><ellipse cx="18" cy="472.6094" fill="#84BE84" rx="3" ry="3" style="stroke:#038048;stroke-width:1.0;"/><text fill="#000000" font-family="sans-serif" font-size="11" lengthAdjust="spacing" textLength="221" x="27" y="475.8198">revoke(permission : Permission) : void</text><ellipse cx="18" cy="485.4141" fill="#84BE84" rx="3" ry="3" style="stroke:#038048;stroke-width:1.0;"/><text fill="#000000" font-family="sans-serif" font-size="11" lengthAdjust="spacing" textLength="258" x="27" y="488.6245">isAllowed(permission : Permission) : boolean</text><!--MD5=[09ce52be0ee7de43c61b6e2d59bf108b]
class Person--><rect codeLine="25" fill="#FEFECE" filter="url(#f145bddfby8eb8)" height="150.4375" id="Person" style="stroke:#A80036;stroke-width:1.5;" width="453" x="430" y="370.5"/><ellipse cx="630.25" cy="386.5" fill="#ADD1B2" rx="11" ry="11" style="stroke:#A80036;stroke-width:1.0;"/><path d="M633.2188,392.1406 Q632.6406,392.4375 632,392.5781 Q631.3594,392.7344 630.6563,392.7344 Q628.1563,392.7344 626.8281,391.0938 Q625.5156,389.4375 625.5156,386.3125 Q625.5156,383.1875 626.8281,381.5313 Q628.1563,379.875 630.6563,379.875 Q631.3594,379.875 632,380.0313 Q632.6563,380.1875 633.2188,380.4844 L633.2188,383.2031 Q632.5938,382.625 632,382.3594 Q631.4063,382.0781 630.7813,382.0781 Q629.4375,382.0781 628.75,383.1563 Q628.0625,384.2188 628.0625,386.3125 Q628.0625,388.4063 628.75,389.4844 Q629.4375,390.5469 630.7813,390.5469 Q631.4063,390.5469 632,390.2813 Q632.5938,390 633.2188,389.4219 L633.2188,392.1406 Z " fill="#000000"/><text fill="#000000" font-family="sans-serif" font-size="12" lengthAdjust="spacing" textLength="44" x="650.75" y="390.6543">Person</text><line style="stroke:#A80036;stroke-width:1.5;" x1="431" x2="882" y1="402.5" y2="402.5"/><rect fill="none" height="6" style="stroke:#C82930;stroke-width:1.0;" width="6" x="438" y="410.5"/><text fill="#000000" font-family="sans-serif" font-size="11" lengthAdjust="spacing" textLength="102" x="450" y="416.7104">firstName : String</text><rect fill="none" height="6" style="stroke:#C82930;stroke-width:1.0;" width="6" x="438" y="423.3047"/><text fill="#000000" font-family="sans-serif" font-size="11" lengthAdjust="spacing" textLength="100" x="450" y="429.5151">lastName : String</text><rect fill="none" height="6" style="stroke:#C82930;stroke-width:1.0;" width="6" x="438" y="436.1094"/><text fill="#000000" font-family="sans-serif" font-size="11" lengthAdjust="spacing" textLength="124" x="450" y="442.3198">emailAddress : String</text><rect fill="none" height="6" style="stroke:#C82930;stroke-width:1.0;" width="6" x="438" y="448.9141"/><text fill="#000000" font-family="sans-serif" font-size="11" lengthAdjust="spacing" textLength="126" x="450" y="455.1245">phoneNumber : String</text><line style="stroke:#A80036;stroke-width:1.5;" x1="431" x2="882" y1="461.7188" y2="461.7188"/><ellipse cx="441" cy="472.7188" fill="#84BE84" rx="3" ry="3" style="stroke:#038048;stroke-width:1.0;"/><text fill="#000000" font-family="sans-serif" font-size="11" lengthAdjust="spacing" textLength="427" x="450" y="475.9292">computeAttendance(courseClass : CourseClass, byDate : LocalDate) : float</text><ellipse cx="441" cy="485.5234" fill="#84BE84" rx="3" ry="3" style="stroke:#038048;stroke-width:1.0;"/><text fill="#000000" font-family="sans-serif" font-size="11" lengthAdjust="spacing" textLength="131" x="450" y="488.7339">grant(role : Role) : void</text><ellipse cx="441" cy="498.3281" fill="#84BE84" rx="3" ry="3" style="stroke:#038048;stroke-width:1.0;"/><text fill="#000000" font-family="sans-serif" font-size="11" lengthAdjust="spacing" textLength="139" x="450" y="501.5386">revoke(role : Role) : void</text><ellipse cx="441" cy="511.1328" fill="#84BE84" rx="3" ry="3" style="stroke:#038048;stroke-width:1.0;"/><text fill="#000000" font-family="sans-serif" font-size="11" lengthAdjust="spacing" textLength="272" x="450" y="514.3433">isAllowedTo(permission : Permission) : boolean</text><!--MD5=[2ca1536628238a7dc78c5d90808014f9]
class Session--><rect codeLine="35" fill="#FEFECE" filter="url(#f145bddfby8eb8)" height="112.0234" id="Session" style="stroke:#A80036;stroke-width:1.5;" width="275" x="944" y="175.5"/><ellipse cx="1052.75" cy="191.5" fill="#ADD1B2" rx="11" ry="11" style="stroke:#A80036;stroke-width:1.0;"/><path d="M1055.7188,197.1406 Q1055.1406,197.4375 1054.5,197.5781 Q1053.8594,197.7344 1053.1563,197.7344 Q1050.6563,197.7344 1049.3281,196.0938 Q1048.0156,194.4375 1048.0156,191.3125 Q1048.0156,188.1875 1049.3281,186.5313 Q1050.6563,184.875 1053.1563,184.875 Q1053.8594,184.875 1054.5,185.0313 Q1055.1563,185.1875 1055.7188,185.4844 L1055.7188,188.2031 Q1055.0938,187.625 1054.5,187.3594 Q1053.9063,187.0781 1053.2813,187.0781 Q1051.9375,187.0781 1051.25,188.1563 Q1050.5625,189.2188 1050.5625,191.3125 Q1050.5625,193.4063 1051.25,194.4844 Q1051.9375,195.5469 1053.2813,195.5469 Q1053.9063,195.5469 1054.5,195.2813 Q1055.0938,195 1055.7188,194.4219 L1055.7188,197.1406 Z " fill="#000000"/><text fill="#000000" font-family="sans-serif" font-size="12" lengthAdjust="spacing" textLength="49" x="1073.25" y="195.6543">Session</text><line style="stroke:#A80036;stroke-width:1.5;" x1="945" x2="1218" y1="207.5" y2="207.5"/><rect fill="none" height="6" style="stroke:#C82930;stroke-width:1.0;" width="6" x="952" y="215.5"/><text fill="#000000" font-family="sans-serif" font-size="11" lengthAdjust="spacing" textLength="92" x="964" y="221.7104">date : LocalDate</text><rect fill="none" height="6" style="stroke:#C82930;stroke-width:1.0;" width="6" x="952" y="228.3047"/><text fill="#000000" font-family="sans-serif" font-size="11" lengthAdjust="spacing" textLength="152" x="964" y="234.5151">beginningTime : LocalTime</text><rect fill="none" height="6" style="stroke:#C82930;stroke-width:1.0;" width="6" x="952" y="241.1094"/><text fill="#000000" font-family="sans-serif" font-size="11" lengthAdjust="spacing" textLength="118" x="964" y="247.3198">endTime : LocalTime</text><rect fill="none" height="6" style="stroke:#C82930;stroke-width:1.0;" width="6" x="952" y="253.9141"/><text fill="#000000" font-family="sans-serif" font-size="11" lengthAdjust="spacing" textLength="69" x="964" y="260.1245">periods : int</text><line style="stroke:#A80036;stroke-width:1.5;" x1="945" x2="1218" y1="266.7188" y2="266.7188"/><ellipse cx="955" cy="277.7188" fill="#84BE84" rx="3" ry="3" style="stroke:#038048;stroke-width:1.0;"/><text fill="#000000" font-family="sans-serif" font-size="11" lengthAdjust="spacing" textLength="249" x="964" y="280.9292">hasHappenedBy(date : LocalDate) : boolean</text><!--MD5=[e7c98ac7ba8d7cf0aa11a2d3b0329a02]
class Attendance--><rect codeLine="42" fill="#FEFECE" filter="url(#f145bddfby8eb8)" height="73.6094" id="Attendance" style="stroke:#A80036;stroke-width:1.5;" width="202" x="980.5" y="393.5"/><ellipse cx="1040.75" cy="409.5" fill="#ADD1B2" rx="11" ry="11" style="stroke:#A80036;stroke-width:1.0;"/><path d="M1043.7188,415.1406 Q1043.1406,415.4375 1042.5,415.5781 Q1041.8594,415.7344 1041.1563,415.7344 Q1038.6563,415.7344 1037.3281,414.0938 Q1036.0156,412.4375 1036.0156,409.3125 Q1036.0156,406.1875 1037.3281,404.5313 Q1038.6563,402.875 1041.1563,402.875 Q1041.8594,402.875 1042.5,403.0313 Q1043.1563,403.1875 1043.7188,403.4844 L1043.7188,406.2031 Q1043.0938,405.625 1042.5,405.3594 Q1041.9063,405.0781 1041.2813,405.0781 Q1039.9375,405.0781 1039.25,406.1563 Q1038.5625,407.2188 1038.5625,409.3125 Q1038.5625,411.4063 1039.25,412.4844 Q1039.9375,413.5469 1041.2813,413.5469 Q1041.9063,413.5469 1042.5,413.2813 Q1043.0938,413 1043.7188,412.4219 L1043.7188,415.1406 Z " fill="#000000"/><text fill="#000000" font-family="sans-serif" font-size="12" lengthAdjust="spacing" textLength="73" x="1061.25" y="413.6543">Attendance</text><line style="stroke:#A80036;stroke-width:1.5;" x1="981.5" x2="1181.5" y1="425.5" y2="425.5"/><rect fill="none" height="6" style="stroke:#C82930;stroke-width:1.0;" width="6" x="988.5" y="433.5"/><text fill="#000000" font-family="sans-serif" font-size="11" lengthAdjust="spacing" textLength="148" x="1000.5" y="439.7104">presencePeriods : Integer</text><line style="stroke:#A80036;stroke-width:1.5;" x1="981.5" x2="1181.5" y1="446.3047" y2="446.3047"/><ellipse cx="991.5" cy="457.3047" fill="#84BE84" rx="3" ry="3" style="stroke:#038048;stroke-width:1.0;"/><text fill="#000000" font-family="sans-serif" font-size="11" lengthAdjust="spacing" textLength="176" x="1000.5" y="460.5151">computeAttendedPeriods() : int</text><!--MD5=[47b21ac7beaa17c7d45c211e30986bf0]
class AttendanceStatus--><rect codeLine="46" fill="#FEFECE" filter="url(#f145bddfby8eb8)" height="112.0234" id="AttendanceStatus" style="stroke:#A80036;stroke-width:1.5;" width="220" x="971.5" y="567.5"/><ellipse cx="1020.25" cy="583.5" fill="#EB937F" rx="11" ry="11" style="stroke:#A80036;stroke-width:1.0;"/><path d="M1024.3594,589.5 L1016.6406,589.5 L1016.6406,577.1094 L1024.3594,577.1094 L1024.3594,579.2656 L1019.0938,579.2656 L1019.0938,581.9375 L1023.8594,581.9375 L1023.8594,584.0938 L1019.0938,584.0938 L1019.0938,587.3438 L1024.3594,587.3438 L1024.3594,589.5 Z " fill="#000000"/><text fill="#000000" font-family="sans-serif" font-size="12" lengthAdjust="spacing" textLength="114" x="1040.75" y="587.6543">AttendanceStatus</text><line style="stroke:#A80036;stroke-width:1.5;" x1="972.5" x2="1190.5" y1="599.5" y2="599.5"/><text fill="#000000" font-family="sans-serif" font-size="11" lengthAdjust="spacing" textLength="51" x="977.5" y="613.7104">PRESENT</text><text fill="#000000" font-family="sans-serif" font-size="11" lengthAdjust="spacing" textLength="70" x="977.5" y="626.5151">CONNECTED</text><text fill="#000000" font-family="sans-serif" font-size="11" lengthAdjust="spacing" textLength="153" x="977.5" y="639.3198">ABSENT_WITHOUT_EXCUSE</text><text fill="#000000" font-family="sans-serif" font-size="11" lengthAdjust="spacing" textLength="129" x="977.5" y="652.1245">ABSENT_WITH_EXCUSE</text><text fill="#000000" font-family="sans-serif" font-size="11" lengthAdjust="spacing" textLength="208" x="977.5" y="664.9292">ABSENT_WITH_MEDICAL_CERTIFICATE</text><line style="stroke:#A80036;stroke-width:1.5;" x1="972.5" x2="1190.5" y1="671.5234" y2="671.5234"/><!--MD5=[1f76b7a26f60dff10f89c03c446c5b1e]
class CourseClass--><rect codeLine="53" fill="#FEFECE" filter="url(#f145bddfby8eb8)" height="86.4141" id="CourseClass" style="stroke:#A80036;stroke-width:1.5;" width="305" x="504" y="184.5"/><ellipse cx="613.75" cy="200.5" fill="#ADD1B2" rx="11" ry="11" style="stroke:#A80036;stroke-width:1.0;"/><path d="M616.7188,206.1406 Q616.1406,206.4375 615.5,206.5781 Q614.8594,206.7344 614.1563,206.7344 Q611.6563,206.7344 610.3281,205.0938 Q609.0156,203.4375 609.0156,200.3125 Q609.0156,197.1875 610.3281,195.5313 Q611.6563,193.875 614.1563,193.875 Q614.8594,193.875 615.5,194.0313 Q616.1563,194.1875 616.7188,194.4844 L616.7188,197.2031 Q616.0938,196.625 615.5,196.3594 Q614.9063,196.0781 614.2813,196.0781 Q612.9375,196.0781 612.25,197.1563 Q611.5625,198.2188 611.5625,200.3125 Q611.5625,202.4063 612.25,203.4844 Q612.9375,204.5469 614.2813,204.5469 Q614.9063,204.5469 615.5,204.2813 Q616.0938,204 616.7188,203.4219 L616.7188,206.1406 Z " fill="#000000"/><text fill="#000000" font-family="sans-serif" font-size="12" lengthAdjust="spacing" textLength="77" x="634.25" y="204.6543">CourseClass</text><line style="stroke:#A80036;stroke-width:1.5;" x1="505" x2="808" y1="216.5" y2="216.5"/><rect fill="none" height="6" style="stroke:#C82930;stroke-width:1.0;" width="6" x="512" y="224.5"/><text fill="#000000" font-family="sans-serif" font-size="11" lengthAdjust="spacing" textLength="96" x="524" y="230.7104">identifier : String</text><line style="stroke:#A80036;stroke-width:1.5;" x1="505" x2="808" y1="237.3047" y2="237.3047"/><ellipse cx="515" cy="248.3047" fill="#84BE84" rx="3" ry="3" style="stroke:#038048;stroke-width:1.0;"/><text fill="#000000" font-family="sans-serif" font-size="11" lengthAdjust="spacing" textLength="147" x="524" y="251.5151">computePeriodTotal() : int</text><ellipse cx="515" cy="261.1094" fill="#84BE84" rx="3" ry="3" style="stroke:#038048;stroke-width:1.0;"/><text fill="#000000" font-family="sans-serif" font-size="11" lengthAdjust="spacing" textLength="279" x="524" y="264.3198">computePeriodTotalByDate(date : LocalDate) : int</text><!--MD5=[161a2fdc2b138c835c115a3bbd98c426]
link Section to Course--><path codeLine="59" d="M213.25,37.5 C213.25,37.5 494.42,37.5 591.39,37.5 " fill="none" id="Section-Course" style="stroke:#A80036;stroke-width:1.0;"/><polygon fill="#A80036" points="604.49,37.5,595.49,33.5,599.49,37.5,595.49,41.5,604.49,37.5" style="stroke:#A80036;stroke-width:1.0;"/><line style="stroke:#A80036;stroke-width:1.0;" x1="599.49" x2="591.49" y1="37.5" y2="37.5"/><polygon fill="#FFFFFF" points="201.25,37.5,207.25,41.5,213.25,37.5,207.25,33.5,201.25,37.5" style="stroke:#A80036;stroke-width:1.0;"/><text fill="#000000" font-family="sans-serif" font-size="13" lengthAdjust="spacing" textLength="23" x="209.0195" y="50.501">1..*</text><text fill="#000000" font-family="sans-serif" font-size="13" lengthAdjust="spacing" textLength="23" x="573.3528" y="50.5489">1..*</text><!--MD5=[4ede3506551307f5d0a05e4f606efc8d]
reverse link Course to CourseClass--><path codeLine="60" d="M656.5,73.34 C656.5,104.88 656.5,150.85 656.5,184.39 " fill="none" id="Course-backto-CourseClass" style="stroke:#A80036;stroke-width:1.0;"/><polygon fill="#A80036" points="656.5,68.02,652.5,77.02,656.5,73.02,660.5,77.02,656.5,68.02" style="stroke:#A80036;stroke-width:1.0;"/><polygon fill="#000000" points="605,121.3164,602.0611,130.3615,607.9389,130.3615,605,121.3164" style="stroke:#000000;stroke-width:1.0;"/><text fill="#000000" font-family="sans-serif" font-size="13" lengthAdjust="spacing" textLength="75" x="614" y="130.8169">instantiates</text><text fill="#000000" font-family="sans-serif" font-size="13" lengthAdjust="spacing" textLength="8" x="647.675" y="87.9624">1</text><text fill="#000000" font-family="sans-serif" font-size="13" lengthAdjust="spacing" textLength="23" x="631.6672" y="173.3685">0..*</text><!--MD5=[2d4899474f26ea63f3af524c5ac199da]
reverse link AcademicYear to CourseClass--><path codeLine="61" d="M269.72,227.5 C339.78,227.5 428.91,227.5 503.85,227.5 " fill="none" id="AcademicYear-backto-CourseClass" style="stroke:#A80036;stroke-width:1.0;"/><polygon fill="#A80036" points="264.71,227.5,273.71,231.5,269.71,227.5,273.71,223.5,264.71,227.5" style="stroke:#A80036;stroke-width:1.0;"/><text fill="#000000" font-family="sans-serif" font-size="13" lengthAdjust="spacing" textLength="8" x="272.3789" y="240.0384">1</text><text fill="#000000" font-family="sans-serif" font-size="13" lengthAdjust="spacing" textLength="23" x="472.899" y="239.9234">1..*</text><!--MD5=[faf795aec592ad9243c25de5ae8b4cd3]
link CourseClass to Person--><path codeLine="62" d="M764.17,270.54 C824.34,302.44 840.86,334.34 813.72,366.25 " fill="none" id="CourseClass-to-Person" style="stroke:#A80036;stroke-width:1.0;"/><polygon fill="#A80036" points="810.2,370.14,819.21,366.1626,813.5598,366.4371,813.2853,360.7869,810.2,370.14" style="stroke:#A80036;stroke-width:1.0;"/><text fill="#000000" font-family="sans-serif" font-size="13" lengthAdjust="spacing" textLength="23" x="757.0982" y="290.9543">0..*</text><text fill="#000000" font-family="sans-serif" font-size="13" lengthAdjust="spacing" textLength="23" x="781.5023" y="344.4342">1..*</text><text fill="#000000" font-family="sans-serif" font-size="13" lengthAdjust="spacing" textLength="56" x="765.0023" y="359.567">teachers</text><!--MD5=[faf795aec592ad9243c25de5ae8b4cd3]
link CourseClass to Person--><path codeLine="63" d="M548.83,270.54 C488.66,302.44 472.14,334.34 499.28,366.25 " fill="none" id="CourseClass-to-Person-1" style="stroke:#A80036;stroke-width:1.0;"/><polygon fill="#A80036" points="502.8,370.14,499.7147,360.7869,499.4402,366.4371,493.79,366.1626,502.8,370.14" style="stroke:#A80036;stroke-width:1.0;"/><text fill="#000000" font-family="sans-serif" font-size="13" lengthAdjust="spacing" textLength="23" x="506.0925" y="290.9543">0..*</text><text fill="#000000" font-family="sans-serif" font-size="13" lengthAdjust="spacing" textLength="23" x="447.6852" y="344.4342">0..*</text><text fill="#000000" font-family="sans-serif" font-size="13" lengthAdjust="spacing" textLength="56" x="431.1852" y="359.567">students</text><!--MD5=[bfadb1714dcc4eed757417f92c646f94]
link CourseClass to Session--><path codeLine="64" d="M821.0194,229.0487 C821.0194,229.0487 895.41,229.75 930.45,230.08 " fill="none" id="CourseClass-Session" style="stroke:#A80036;stroke-width:1.0;"/><polygon fill="#A80036" points="943.75,230.21,934.79,226.1212,938.7502,230.1606,934.7109,234.1208,943.75,230.21" style="stroke:#A80036;stroke-width:1.0;"/><line style="stroke:#A80036;stroke-width:1.0;" x1="938.7502" x2="930.755" y1="230.1606" y2="230.08"/><polygon fill="#A80036" points="809.02,228.93,814.9801,232.9891,821.0194,229.0487,815.0593,224.9895,809.02,228.93" style="stroke:#A80036;stroke-width:1.0;"/><text fill="#000000" font-family="sans-serif" font-size="13" lengthAdjust="spacing" textLength="8" x="817.0906" y="241.4501">1</text><text fill="#000000" font-family="sans-serif" font-size="13" lengthAdjust="spacing" textLength="23" x="913.0543" y="242.5999">0..*</text><!--MD5=[54473ea8c17d68b58414b39a42ea7ea6]
reverse link Role to Person--><path codeLine="65" d="M296.22,445.5 C338.02,445.5 384.58,445.5 429.95,445.5 " fill="none" id="Role-backto-Person" style="stroke:#A80036;stroke-width:1.0;"/><polygon fill="#A80036" points="291.15,445.5,300.15,449.5,296.15,445.5,300.15,441.5,291.15,445.5" style="stroke:#A80036;stroke-width:1.0;"/><polygon fill="#000000" points="321,437.0664,330.0451,440.0053,330.0451,434.1275,321,437.0664" style="stroke:#000000;stroke-width:1.0;"/><text fill="#000000" font-family="sans-serif" font-size="13" lengthAdjust="spacing" textLength="64" x="335" y="441.5669">is granted</text><text fill="#000000" font-family="sans-serif" font-size="13" lengthAdjust="spacing" textLength="23" x="299.0726" y="457.9514">0..*</text><text fill="#000000" font-family="sans-serif" font-size="13" lengthAdjust="spacing" textLength="23" x="399.139" y="457.808">0..*</text><!--MD5=[1be95c84710ac8c74ee34eae5b43f28e]
link Role to Permission--><path codeLine="66" d="M149,507.22 C149,507.22 149,557.45 149,581.96 " fill="none" id="Role-Permission" style="stroke:#A80036;stroke-width:1.0;"/><polygon fill="#A80036" points="149,595.25,153,586.25,149,590.25,145,586.25,149,595.25" style="stroke:#A80036;stroke-width:1.0;"/><line style="stroke:#A80036;stroke-width:1.0;" x1="149" x2="149" y1="590.25" y2="582.25"/><polygon fill="#FFFFFF" points="149,495.22,145,501.22,149,507.22,153,501.22,149,495.22" style="stroke:#A80036;stroke-width:1.0;"/><text fill="#000000" font-family="sans-serif" font-size="13" lengthAdjust="spacing" textLength="23" x="124.3828" y="515.3274">0..*</text><text fill="#000000" font-family="sans-serif" font-size="13" lengthAdjust="spacing" textLength="23" x="123.9516" y="584.3924">0..*</text><!--MD5=[8fc7fa28b3adc9071818ec846e59e9d4]
link Person to Attendance--><path codeLine="67" d="M883.24,437.49 C915.3,436.36 946.93,435.24 975.15,434.24 " fill="none" id="Person-to-Attendance" style="stroke:#A80036;stroke-width:1.0;"/><polygon fill="#A80036" points="980.38,434.05,971.2482,430.3607,975.3829,434.2213,971.5223,438.356,980.38,434.05" style="stroke:#A80036;stroke-width:1.0;"/><text fill="#000000" font-family="sans-serif" font-size="13" lengthAdjust="spacing" textLength="8" x="890.8112" y="449.5352">1</text><text fill="#000000" font-family="sans-serif" font-size="13" lengthAdjust="spacing" textLength="23" x="921.1625" y="447.1493">0..*</text><text fill="#000000" font-family="sans-serif" font-size="13" lengthAdjust="spacing" textLength="80" x="892.6625" y="462.2821">attendances</text><!--MD5=[ad40dbcd5747bc425114fc4b09bfb4fa]
reverse link Session to Attendance--><path codeLine="68" d="M1081.5,293.07 C1081.5,326.44 1081.5,359.81 1081.5,393.19 " fill="none" id="Session-backto-Attendance" style="stroke:#A80036;stroke-width:1.0;"/><polygon fill="#A80036" points="1081.5,287.71,1077.5,296.71,1081.5,292.71,1085.5,296.71,1081.5,287.71" style="stroke:#A80036;stroke-width:1.0;"/><text fill="#000000" font-family="sans-serif" font-size="13" lengthAdjust="spacing" textLength="8" x="1050.875" y="307.5787">1</text><text fill="#000000" font-family="sans-serif" font-size="13" lengthAdjust="spacing" textLength="48" x="1030.875" y="322.7115">session</text><text fill="#000000" font-family="sans-serif" font-size="13" lengthAdjust="spacing" textLength="23" x="1056.4516" y="382.3217">0..*</text><!--MD5=[4beea503b444bafd9cbef92c0125adbe]
link Attendance to AttendanceStatus--><path codeLine="69" d="M1081.5,467.65 C1081.5,499.19 1081.5,530.73 1081.5,562.27 " fill="none" id="Attendance-to-AttendanceStatus" style="stroke:#A80036;stroke-width:1.0;"/><polygon fill="#A80036" points="1081.5,567.33,1085.5,558.33,1081.5,562.33,1077.5,558.33,1081.5,567.33" style="stroke:#A80036;stroke-width:1.0;"/><text fill="#000000" font-family="sans-serif" font-size="13" lengthAdjust="spacing" textLength="23" x="1056.5953" y="487.1554">0..*</text><text fill="#000000" font-family="sans-serif" font-size="13" lengthAdjust="spacing" textLength="8" x="1055.1875" y="541.1819">1</text><text fill="#000000" font-family="sans-serif" font-size="13" lengthAdjust="spacing" textLength="40" x="1039.1875" y="556.3147">status</text><!--MD5=[09ea9d53cbaa3048a369a51494a89c3b]
@startuml conception_classes
left to right direction
skinparam nodesep 100

class Section {
  -name : String
}
class Course {
  -name : String
}
class AcademicYear {
  -beginning : LocalDate
  -end : LocalDate
  +contains(date : LocalDate) : boolean
}
enum Permission {
  READ_PERSON_DETAILS
  ...
}
class Role {
  -name : String
  +grant(permission : Permission) : void
  +revoke(permission : Permission) : void
  +isAllowed(permission : Permission) : boolean
}
class Person {
  -firstName : String
  -lastName : String
  -emailAddress : String
  -phoneNumber : String
  +computeAttendance(courseClass : CourseClass, byDate : LocalDate) : float
  +grant(role : Role) : void
  +revoke(role : Role) : void
  +isAllowedTo(permission : Permission) : boolean
}
class Session {
  -date : LocalDate
  -beginningTime : LocalTime
  -endTime : LocalTime
  -periods : int
  +hasHappenedBy(date : LocalDate) : boolean
}
class Attendance {
  -presencePeriods : Integer
  +computeAttendedPeriods() : int
}
enum AttendanceStatus {
  PRESENT
  CONNECTED
  ABSENT_WITHOUT_EXCUSE
  ABSENT_WITH_EXCUSE
  ABSENT_WITH_MEDICAL_CERTIFICATE
}
class CourseClass {
  -identifier : String
  +computePeriodTotal() : int
  +computePeriodTotalByDate(date : LocalDate) : int
}

Section "1..*" o- -> "1..*" Course
Course "1" <- "0..*" CourseClass : instantiates <
AcademicYear "1" <- - "1..*" CourseClass
CourseClass "0..*" -> "1..*\nteachers" Person
CourseClass "0..*" -> "0..*\nstudents" Person
CourseClass "1" *- -> "0..*" Session
Role "0..*" <- - "0..*" Person : is granted <
Role "0..*" o-> "0..*" Permission
Person "1" - -> "0..*\nattendances" Attendance
Session "1\nsession" <- "0..*" Attendance
Attendance "0..*" -> "1\nstatus" AttendanceStatus
@enduml

PlantUML version 1.2022.0(Tue Jan 11 16:16:42 UTC 2022)
(GPL source distribution)
Java Runtime: OpenJDK Runtime Environment
JVM: OpenJDK 64-Bit Server VM
Default Encoding: UTF-8
Language: en
Country: US
--></g></svg>